<svg width="210" height="80" viewBox="0 0 210 80" fill="none" xmlns="http://www.w3.org/2000/svg">
<mask id="mask0_1546_99" style="mask-type:alpha" maskUnits="userSpaceOnUse" x="0" y="0" width="210" height="80">
<rect width="210" height="80" fill="white"/>
</mask>
<g mask="url(#mask0_1546_99)">
<path d="M26.7522 64.0706C23.1148 71.1198 14.5713 73.8452 7.64099 70.1674C0.695452 66.4815 -2.00857 57.7577 1.59778 50.673L17.2074 20.0113C21.5498 11.4816 33.4055 11.1621 38.1838 19.4465L44.3042 30.0586L26.7527 64.0706H26.7522Z" fill="#EA001B"/>
<path d="M12.9062 28.2013L17.1724 19.8205C21.5418 11.2376 33.4954 10.9819 38.2137 19.3706L61.0355 59.9418L57.1581 67.5466C52.8245 76.0462 41.019 76.3903 36.2161 68.157L12.9062 28.2013Z" fill="#EA001B"/>
<path opacity="0.8" d="M47.5479 23.4836C51.2133 16.3808 59.7967 13.5987 66.8126 17.2389C73.9721 20.9538 76.7622 29.9244 73.0103 37.1656L57.1783 67.721C52.7936 76.1835 41.0009 76.4573 36.2427 68.207L30.0288 57.4329L47.5479 23.4836Z" fill="#F79E1C"/>
<path d="M70.7077 14.7509C73.0782 14.7509 74.9999 12.7919 74.9999 10.3754C74.9999 7.95895 73.0782 6 70.7077 6C68.3372 6 66.4155 7.95895 66.4155 10.3754C66.4155 12.7919 68.3372 14.7509 70.7077 14.7509Z" fill="#F9B149"/>
<path d="M88.001 42V25.9H91.52L99.984 37.377L99.225 37.285C99.1177 36.4263 99.0257 35.629 98.949 34.893C98.8723 34.1417 98.8187 33.3597 98.788 32.547C98.7727 31.7343 98.765 30.799 98.765 29.741V25.9H102.583V42H99.018L90.232 30.178L91.359 30.339C91.4663 31.2743 91.5507 32.0487 91.612 32.662C91.6733 33.2753 91.7193 33.8043 91.75 34.249C91.7807 34.6783 91.8037 35.0847 91.819 35.468C91.8343 35.836 91.842 36.25 91.842 36.71V42H88.001ZM106.875 42V29.787H110.578V42H106.875ZM108.738 27.372C108.033 27.372 107.481 27.211 107.082 26.889C106.699 26.5517 106.507 26.0763 106.507 25.463C106.507 24.8957 106.707 24.4357 107.105 24.083C107.504 23.7303 108.048 23.554 108.738 23.554C109.413 23.554 109.942 23.7227 110.325 24.06C110.724 24.382 110.923 24.8497 110.923 25.463C110.923 26.0303 110.724 26.4903 110.325 26.843C109.942 27.1957 109.413 27.372 108.738 27.372ZM118.29 42L113.184 29.787H117.255L120.291 38.826L119.394 38.941L122.522 29.787H126.57L121.188 42H118.29ZM128.466 42V39.838L134.929 31.627V32.8H128.466V29.787H138.586V32.018L132.491 40.022L132.399 38.987H138.77V42H128.466ZM147.648 42.23C146.299 42.23 145.118 41.9617 144.106 41.425C143.11 40.8883 142.335 40.1523 141.783 39.217C141.247 38.2663 140.978 37.1853 140.978 35.974C140.978 35.0233 141.132 34.157 141.438 33.375C141.745 32.5777 142.174 31.8953 142.726 31.328C143.294 30.7607 143.953 30.3237 144.704 30.017C145.471 29.695 146.307 29.534 147.211 29.534C148.07 29.534 148.852 29.6873 149.557 29.994C150.263 30.3007 150.876 30.73 151.397 31.282C151.919 31.834 152.317 32.4857 152.593 33.237C152.869 33.9883 153 34.8087 152.984 35.698L152.961 36.71H143.255L142.703 34.617H149.948L149.557 35.031V34.571C149.527 34.1877 149.404 33.858 149.189 33.582C148.99 33.2907 148.722 33.0607 148.384 32.892C148.062 32.7233 147.694 32.639 147.28 32.639C146.667 32.639 146.146 32.7617 145.716 33.007C145.302 33.237 144.988 33.5743 144.773 34.019C144.559 34.4637 144.451 35.0157 144.451 35.675C144.451 36.3343 144.589 36.917 144.865 37.423C145.157 37.929 145.571 38.32 146.107 38.596C146.659 38.872 147.311 39.01 148.062 39.01C148.568 39.01 149.028 38.9333 149.442 38.78C149.856 38.6267 150.301 38.366 150.776 37.998L152.501 40.436C152.026 40.8347 151.52 41.172 150.983 41.448C150.447 41.7087 149.895 41.9003 149.327 42.023C148.775 42.161 148.216 42.23 147.648 42.23ZM155.788 42V29.787H159.307L159.445 32.271L158.686 32.547C158.855 31.995 159.154 31.4967 159.583 31.052C160.028 30.592 160.557 30.224 161.17 29.948C161.784 29.672 162.428 29.534 163.102 29.534C164.022 29.534 164.797 29.7257 165.425 30.109C166.054 30.477 166.522 31.0367 166.828 31.788C167.15 32.524 167.311 33.4363 167.311 34.525V42H163.608V34.801C163.608 34.3103 163.539 33.904 163.401 33.582C163.263 33.26 163.056 33.0223 162.78 32.869C162.504 32.7157 162.159 32.6467 161.745 32.662C161.423 32.662 161.124 32.7157 160.848 32.823C160.572 32.915 160.327 33.0607 160.112 33.26C159.913 33.444 159.76 33.6587 159.652 33.904C159.545 34.1493 159.491 34.4253 159.491 34.732V42H157.628C157.23 42 156.869 42 156.547 42C156.241 42 155.988 42 155.788 42ZM89.927 63V52.868H86.595V51.1H95.197V52.868H91.763V63H89.927ZM100.851 63.17C99.9326 63.17 99.1166 62.9773 98.4026 62.592C97.6999 62.1953 97.1446 61.657 96.7366 60.977C96.3399 60.297 96.1416 59.515 96.1416 58.631C96.1416 57.9283 96.2549 57.288 96.4816 56.71C96.7082 56.132 97.0199 55.6333 97.4166 55.214C97.8246 54.7833 98.3062 54.4547 98.8616 54.228C99.4282 53.99 100.04 53.871 100.698 53.871C101.276 53.871 101.814 53.9843 102.313 54.211C102.811 54.4263 103.242 54.7267 103.605 55.112C103.979 55.4973 104.262 55.9563 104.455 56.489C104.659 57.0103 104.755 57.5827 104.744 58.206L104.727 58.954H97.4336L97.0426 57.56H103.214L102.959 57.849V57.441C102.925 57.067 102.8 56.7327 102.585 56.438C102.369 56.1433 102.097 55.911 101.769 55.741C101.44 55.571 101.083 55.486 100.698 55.486C100.086 55.486 99.5699 55.605 99.1506 55.843C98.7312 56.0697 98.4139 56.4097 98.1986 56.863C97.9832 57.305 97.8756 57.8547 97.8756 58.512C97.8756 59.1353 98.0059 59.6793 98.2666 60.144C98.5272 60.5973 98.8956 60.9487 99.3716 61.198C99.8476 61.4473 100.397 61.572 101.021 61.572C101.463 61.572 101.871 61.4983 102.245 61.351C102.63 61.2037 103.044 60.9373 103.486 60.552L104.37 61.793C104.098 62.065 103.763 62.303 103.367 62.507C102.981 62.711 102.568 62.8753 102.126 63C101.695 63.1133 101.27 63.17 100.851 63.17ZM111.797 63.17C110.97 63.17 110.228 62.966 109.57 62.558C108.924 62.15 108.409 61.5947 108.023 60.892C107.649 60.1893 107.462 59.4017 107.462 58.529C107.462 57.6563 107.649 56.8687 108.023 56.166C108.409 55.4633 108.924 54.908 109.57 54.5C110.228 54.092 110.97 53.888 111.797 53.888C112.591 53.888 113.31 54.0523 113.956 54.381C114.614 54.6983 115.112 55.1347 115.453 55.69L114.483 56.88C114.302 56.6193 114.07 56.3813 113.786 56.166C113.503 55.9507 113.203 55.7807 112.885 55.656C112.568 55.5313 112.262 55.469 111.967 55.469C111.423 55.469 110.936 55.605 110.505 55.877C110.086 56.1377 109.752 56.5003 109.502 56.965C109.253 57.4297 109.128 57.951 109.128 58.529C109.128 59.107 109.259 59.6283 109.519 60.093C109.78 60.5463 110.126 60.909 110.556 61.181C110.987 61.453 111.463 61.589 111.984 61.589C112.29 61.589 112.585 61.538 112.868 61.436C113.163 61.334 113.446 61.181 113.718 60.977C113.99 60.773 114.245 60.5237 114.483 60.229L115.453 61.419C115.09 61.929 114.568 62.3483 113.888 62.677C113.22 63.0057 112.523 63.17 111.797 63.17ZM118.464 63V50.42H120.215V55.911L119.909 56.115C120.022 55.7183 120.243 55.3557 120.572 55.027C120.901 54.687 121.292 54.415 121.745 54.211C122.198 53.9957 122.663 53.888 123.139 53.888C123.819 53.888 124.386 54.024 124.839 54.296C125.292 54.5567 125.632 54.959 125.859 55.503C126.086 56.047 126.199 56.7327 126.199 57.56V63H124.448V57.679C124.448 57.169 124.38 56.7497 124.244 56.421C124.108 56.081 123.898 55.8373 123.615 55.69C123.332 55.5313 122.98 55.4633 122.561 55.486C122.221 55.486 121.909 55.5427 121.626 55.656C121.343 55.758 121.093 55.9053 120.878 56.098C120.674 56.2907 120.51 56.5173 120.385 56.778C120.272 57.0273 120.215 57.2993 120.215 57.594V63H119.348C119.201 63 119.053 63 118.906 63C118.759 63 118.611 63 118.464 63ZM129.935 63V54.075H131.686V55.911L131.38 56.115C131.493 55.7183 131.714 55.3557 132.043 55.027C132.371 54.687 132.762 54.415 133.216 54.211C133.669 53.9957 134.134 53.888 134.61 53.888C135.29 53.888 135.856 54.024 136.31 54.296C136.763 54.5567 137.103 54.959 137.33 55.503C137.556 56.047 137.67 56.7327 137.67 57.56V63H135.919V57.679C135.919 57.169 135.851 56.7497 135.715 56.421C135.579 56.081 135.369 55.8373 135.086 55.69C134.802 55.5313 134.451 55.4633 134.032 55.486C133.692 55.486 133.38 55.5427 133.097 55.656C132.813 55.758 132.564 55.9053 132.349 56.098C132.145 56.2907 131.98 56.5173 131.856 56.778C131.742 57.0273 131.686 57.2993 131.686 57.594V63H130.819C130.671 63 130.524 63 130.377 63C130.229 63 130.082 63 129.935 63ZM145.417 63.17C144.544 63.17 143.762 62.9717 143.071 62.575C142.391 62.167 141.853 61.6173 141.456 60.926C141.059 60.2233 140.861 59.4243 140.861 58.529C140.861 57.6337 141.059 56.8403 141.456 56.149C141.853 55.4463 142.391 54.8967 143.071 54.5C143.762 54.092 144.544 53.888 145.417 53.888C146.278 53.888 147.049 54.092 147.729 54.5C148.42 54.8967 148.964 55.4463 149.361 56.149C149.758 56.8403 149.956 57.6337 149.956 58.529C149.956 59.4243 149.758 60.2233 149.361 60.926C148.964 61.6173 148.42 62.167 147.729 62.575C147.049 62.9717 146.278 63.17 145.417 63.17ZM145.417 61.572C145.95 61.572 146.426 61.4417 146.845 61.181C147.264 60.909 147.593 60.5463 147.831 60.093C148.069 59.6283 148.182 59.107 148.171 58.529C148.182 57.9397 148.069 57.4183 147.831 56.965C147.593 56.5003 147.264 56.1377 146.845 55.877C146.426 55.6163 145.95 55.486 145.417 55.486C144.884 55.486 144.403 55.622 143.972 55.894C143.553 56.1547 143.224 56.5173 142.986 56.982C142.748 57.4353 142.635 57.951 142.646 58.529C142.635 59.107 142.748 59.6283 142.986 60.093C143.224 60.5463 143.553 60.909 143.972 61.181C144.403 61.4417 144.884 61.572 145.417 61.572ZM153.258 63V50.42H155.009V63H153.258ZM162.696 63.17C161.824 63.17 161.042 62.9717 160.35 62.575C159.67 62.167 159.132 61.6173 158.735 60.926C158.339 60.2233 158.14 59.4243 158.14 58.529C158.14 57.6337 158.339 56.8403 158.735 56.149C159.132 55.4463 159.67 54.8967 160.35 54.5C161.042 54.092 161.824 53.888 162.696 53.888C163.558 53.888 164.328 54.092 165.008 54.5C165.7 54.8967 166.244 55.4463 166.64 56.149C167.037 56.8403 167.235 57.6337 167.235 58.529C167.235 59.4243 167.037 60.2233 166.64 60.926C166.244 61.6173 165.7 62.167 165.008 62.575C164.328 62.9717 163.558 63.17 162.696 63.17ZM162.696 61.572C163.229 61.572 163.705 61.4417 164.124 61.181C164.544 60.909 164.872 60.5463 165.11 60.093C165.348 59.6283 165.462 59.107 165.45 58.529C165.462 57.9397 165.348 57.4183 165.11 56.965C164.872 56.5003 164.544 56.1377 164.124 55.877C163.705 55.6163 163.229 55.486 162.696 55.486C162.164 55.486 161.682 55.622 161.251 55.894C160.832 56.1547 160.503 56.5173 160.265 56.982C160.027 57.4353 159.914 57.951 159.925 58.529C159.914 59.107 160.027 59.6283 160.265 60.093C160.503 60.5463 160.832 60.909 161.251 61.181C161.682 61.4417 162.164 61.572 162.696 61.572ZM174.498 66.91C173.864 66.91 173.229 66.808 172.594 66.604C171.971 66.4113 171.467 66.1563 171.081 65.839L171.727 64.479C172.067 64.7397 172.487 64.9493 172.985 65.108C173.495 65.2667 174 65.346 174.498 65.346C175.122 65.346 175.643 65.244 176.062 65.04C176.482 64.836 176.799 64.5357 177.014 64.139C177.23 63.7423 177.337 63.2493 177.337 62.66V60.943L177.524 61.062C177.468 61.4133 177.281 61.7533 176.963 62.082C176.657 62.3993 176.272 62.66 175.807 62.864C175.343 63.068 174.867 63.17 174.379 63.17C173.529 63.17 172.77 62.9717 172.101 62.575C171.444 62.167 170.923 61.6173 170.537 60.926C170.152 60.2233 169.959 59.4243 169.959 58.529C169.959 57.6337 170.146 56.8403 170.52 56.149C170.906 55.4463 171.427 54.8967 172.084 54.5C172.753 54.092 173.501 53.888 174.328 53.888C174.668 53.888 174.997 53.9333 175.314 54.024C175.632 54.1033 175.926 54.2223 176.198 54.381C176.47 54.5283 176.714 54.6927 176.929 54.874C177.145 55.0553 177.32 55.248 177.456 55.452C177.592 55.656 177.677 55.8487 177.711 56.03L177.337 56.166V54.075H179.088V62.456C179.088 63.17 178.981 63.799 178.765 64.343C178.561 64.8983 178.261 65.363 177.864 65.737C177.468 66.1223 176.986 66.4113 176.419 66.604C175.853 66.808 175.212 66.91 174.498 66.91ZM174.566 61.555C175.122 61.555 175.615 61.4247 176.045 61.164C176.476 60.9033 176.81 60.5463 177.048 60.093C177.286 59.6397 177.405 59.1183 177.405 58.529C177.405 57.9397 177.281 57.4183 177.031 56.965C176.793 56.5003 176.459 56.1377 176.028 55.877C175.609 55.6163 175.122 55.486 174.566 55.486C174.022 55.486 173.535 55.622 173.104 55.894C172.685 56.1547 172.351 56.5173 172.101 56.982C171.863 57.4353 171.744 57.951 171.744 58.529C171.744 59.107 171.863 59.6283 172.101 60.093C172.351 60.5463 172.685 60.9033 173.104 61.164C173.535 61.4247 174.022 61.555 174.566 61.555ZM183.192 63V54.075H184.943V63H183.192ZM184.042 52.103C183.668 52.103 183.379 52.0067 183.175 51.814C182.971 51.6213 182.869 51.3493 182.869 50.998C182.869 50.6693 182.971 50.403 183.175 50.199C183.391 49.995 183.68 49.893 184.042 49.893C184.416 49.893 184.705 49.9893 184.909 50.182C185.113 50.3747 185.215 50.6467 185.215 50.998C185.215 51.3267 185.108 51.593 184.892 51.797C184.688 52.001 184.405 52.103 184.042 52.103ZM193.16 63.17C192.242 63.17 191.426 62.9773 190.712 62.592C190.009 62.1953 189.454 61.657 189.046 60.977C188.649 60.297 188.451 59.515 188.451 58.631C188.451 57.9283 188.564 57.288 188.791 56.71C189.018 56.132 189.329 55.6333 189.726 55.214C190.134 54.7833 190.616 54.4547 191.171 54.228C191.738 53.99 192.35 53.871 193.007 53.871C193.585 53.871 194.123 53.9843 194.622 54.211C195.121 54.4263 195.551 54.7267 195.914 55.112C196.288 55.4973 196.571 55.9563 196.764 56.489C196.968 57.0103 197.064 57.5827 197.053 58.206L197.036 58.954H189.743L189.352 57.56H195.523L195.268 57.849V57.441C195.234 57.067 195.109 56.7327 194.894 56.438C194.679 56.1433 194.407 55.911 194.078 55.741C193.749 55.571 193.392 55.486 193.007 55.486C192.395 55.486 191.879 55.605 191.46 55.843C191.041 56.0697 190.723 56.4097 190.508 56.863C190.293 57.305 190.185 57.8547 190.185 58.512C190.185 59.1353 190.315 59.6793 190.576 60.144C190.837 60.5973 191.205 60.9487 191.681 61.198C192.157 61.4473 192.707 61.572 193.33 61.572C193.772 61.572 194.18 61.4983 194.554 61.351C194.939 61.2037 195.353 60.9373 195.795 60.552L196.679 61.793C196.407 62.065 196.073 62.303 195.676 62.507C195.291 62.711 194.877 62.8753 194.435 63C194.004 63.1133 193.579 63.17 193.16 63.17ZM203.291 63.17C202.543 63.17 201.869 63.0397 201.268 62.779C200.667 62.5183 200.169 62.133 199.772 61.623L200.962 60.603C201.302 60.9997 201.67 61.2887 202.067 61.47C202.475 61.64 202.934 61.725 203.444 61.725C203.648 61.725 203.835 61.7023 204.005 61.657C204.186 61.6003 204.339 61.521 204.464 61.419C204.6 61.317 204.702 61.198 204.77 61.062C204.838 60.9147 204.872 60.756 204.872 60.586C204.872 60.2913 204.764 60.0533 204.549 59.872C204.436 59.7927 204.254 59.7077 204.005 59.617C203.767 59.515 203.455 59.413 203.07 59.311C202.413 59.141 201.874 58.9483 201.455 58.733C201.036 58.5177 200.713 58.274 200.486 58.002C200.316 57.7867 200.191 57.5543 200.112 57.305C200.033 57.0443 199.993 56.761 199.993 56.455C199.993 55.9563 200.135 55.5143 200.418 55.129C200.701 54.7437 201.081 54.4433 201.557 54.228C202.044 54.0013 202.588 53.888 203.189 53.888C203.608 53.888 204.022 53.9447 204.43 54.058C204.849 54.1713 205.235 54.3357 205.586 54.551C205.937 54.7663 206.232 55.0213 206.47 55.316L205.467 56.421C205.252 56.2057 205.014 56.0187 204.753 55.86C204.504 55.69 204.249 55.5597 203.988 55.469C203.727 55.3783 203.489 55.333 203.274 55.333C203.036 55.333 202.821 55.3557 202.628 55.401C202.435 55.4463 202.271 55.5143 202.135 55.605C202.01 55.6957 201.914 55.809 201.846 55.945C201.778 56.081 201.744 56.234 201.744 56.404C201.755 56.5513 201.789 56.693 201.846 56.829C201.914 56.9537 202.005 57.0613 202.118 57.152C202.243 57.2427 202.43 57.339 202.679 57.441C202.928 57.543 203.246 57.6393 203.631 57.73C204.198 57.8773 204.662 58.0417 205.025 58.223C205.399 58.393 205.694 58.5913 205.909 58.818C206.136 59.0333 206.294 59.2827 206.385 59.566C206.476 59.8493 206.521 60.1667 206.521 60.518C206.521 61.028 206.374 61.487 206.079 61.895C205.796 62.2917 205.41 62.6033 204.923 62.83C204.436 63.0567 203.892 63.17 203.291 63.17Z" fill="white"/>
</g>
</svg>
